<?xml version="1.0" encoding="iso-8859-1"?>
<!-- Generator: Adobe Illustrator 19.0.0, SVG Export Plug-In . SVG Version: 6.00 Build 0)  -->
<svg version="1.1" id="Layer_1" xmlns="http://www.w3.org/2000/svg" xmlns:xlink="http://www.w3.org/1999/xlink" x="0px" y="0px"
	 viewBox="0 0 512 512" style="enable-background:new 0 0 512 512;" xml:space="preserve">
<rect x="77.683" y="233.306" style="fill:#828186;" width="33.634" height="205.603"/>
<path style="fill:#BFBDC3;" d="M115.054,504.197c-0.363,4.409-4.048,7.803-8.473,7.803h-23.1c-4.424,0-8.109-3.394-8.473-7.803
	l-5.98-72.511c-0.195-2.368,0.61-4.71,2.219-6.458c1.61-1.748,3.878-2.742,6.254-2.742h35.061c2.377,0,4.644,0.994,6.254,2.742
	c1.61,1.748,2.415,4.09,2.219,6.458L115.054,504.197z"/>
<rect x="400.68" y="233.306" style="fill:#828186;" width="33.634" height="126.003"/>
<path style="fill:#BFBDC3;" d="M438.053,424.597c-0.363,4.409-4.048,7.803-8.473,7.803h-23.1c-4.424,0-8.109-3.394-8.473-7.803
	l-5.98-72.511c-0.195-2.368,0.61-4.71,2.219-6.458c1.61-1.748,3.878-2.742,6.254-2.742h35.061c2.377,0,4.644,0.994,6.254,2.742
	c1.61,1.748,2.415,4.09,2.219,6.458L438.053,424.597z"/>
<rect x="239.181" y="233.306" style="fill:#828186;" width="33.634" height="169.727"/>
<g>
	<rect x="77.683" y="233.306" style="fill:#555558;" width="33.634" height="55.44"/>
	<rect x="400.68" y="233.306" style="fill:#555558;" width="33.634" height="55.44"/>
	<rect x="239.181" y="233.306" style="fill:#555558;" width="33.634" height="55.44"/>
</g>
<path style="fill:#BFBDC3;" d="M276.554,468.321c-0.363,4.409-4.048,7.803-8.473,7.803h-23.1c-4.424,0-8.109-3.394-8.473-7.803
	l-5.98-72.511c-0.195-2.368,0.61-4.71,2.219-6.458c1.61-1.748,3.878-2.742,6.254-2.742h35.061c2.377,0,4.644,0.994,6.254,2.742
	c1.61,1.748,2.415,4.09,2.219,6.458L276.554,468.321z"/>
<path style="fill:#F20013;" d="M69.977,178.108c0,20.97-13.819,38.3-31.769,41.117v25.13c0,4.695,3.806,8.502,8.501,8.502h95.583
	c4.695,0,8.502-3.806,8.502-8.502v-25.13c-17.95-2.817-31.769-20.148-31.769-41.117s13.819-38.3,31.769-41.117V32.496
	C150.794,14.549,136.245,0,118.298,0H70.703C52.756,0,38.209,14.549,38.209,32.496V136.99
	C56.158,139.808,69.977,157.137,69.977,178.108z"/>
<path style="fill:#7FA24D;" d="M392.976,178.108c0,20.97-13.819,38.3-31.769,41.117v25.13c0,4.695,3.806,8.502,8.501,8.502h95.583
	c4.695,0,8.501-3.806,8.501-8.502v-25.13c-17.95-2.817-31.769-20.148-31.769-41.117s13.819-38.3,31.769-41.117V32.496
	C473.793,14.549,459.244,0,441.297,0h-47.595c-17.947,0-32.496,14.549-32.496,32.496V136.99
	C379.157,139.808,392.976,157.137,392.976,178.108z"/>
<path style="fill:#00D9E1;" d="M231.476,178.108c0,20.97-13.819,38.3-31.769,41.117v25.13c0,4.695,3.806,8.502,8.501,8.502h95.583
	c4.695,0,8.501-3.806,8.501-8.502v-25.13c-17.95-2.817-31.769-20.148-31.769-41.117s13.819-38.3,31.769-41.117V32.496
	C312.293,14.549,297.745,0,279.798,0h-47.595c-17.947,0-32.496,14.549-32.496,32.496V136.99
	C217.658,139.808,231.476,157.137,231.476,178.108z"/>
<path style="fill:#FF4B00;" d="M94.5,0H70.703C52.756,0,38.209,14.549,38.209,32.496V136.99
	c17.95,2.817,31.769,20.148,31.769,41.117s-13.819,38.3-31.769,41.117v25.13c0,4.695,3.806,8.502,8.501,8.502H94.5V0z"/>
<path style="fill:#BFF8FA;" d="M256.001,0h-23.797c-17.947,0-32.496,14.549-32.496,32.496V136.99
	c17.95,2.817,31.769,20.148,31.769,41.117s-13.819,38.3-31.769,41.117v25.13c0,4.695,3.806,8.502,8.501,8.502h47.791L256.001,0
	L256.001,0z"/>
<path style="fill:#A8DA64;" d="M417.5,0h-23.798c-17.946,0-32.494,14.547-32.496,32.492v104.497
	c17.95,2.817,31.769,20.148,31.769,41.117s-13.819,38.3-31.768,41.117v25.13c0,4.695,3.806,8.502,8.501,8.502H417.5L417.5,0L417.5,0
	z"/>
<g>
</g>
<g>
</g>
<g>
</g>
<g>
</g>
<g>
</g>
<g>
</g>
<g>
</g>
<g>
</g>
<g>
</g>
<g>
</g>
<g>
</g>
<g>
</g>
<g>
</g>
<g>
</g>
<g>
</g>
</svg>
