<svg xmlns="http://www.w3.org/2000/svg" viewBox="0 0 276.21 91.25"><defs><style>.a,.c{fill:#00509f;}.b{fill:#fff;}.c{font-size:15px;font-family:Lato-Bold, Lato;font-weight:700;letter-spacing:0.57em;}.d{letter-spacing:0.54em;}</style></defs><path class="a" d="M20,0H272.78A2.22,2.22,0,0,1,275,2.22V53a20,20,0,0,1-20,20H2.22A2.22,2.22,0,0,1,0,70.78V20A20,20,0,0,1,20,0Z"/><path class="b" d="M701.44,483.78a2.22,2.22,0,0,1,2.22-2.22h12.69a35.14,35.14,0,0,1,9.3.95,10.38,10.38,0,0,1,4.88,2.74,9.52,9.52,0,0,1,2.22,4.34,38.67,38.67,0,0,1,.58,7.9v4.95q0,5.46-1.13,7.95a7.69,7.69,0,0,1-4.13,3.83,19.51,19.51,0,0,1-7.85,1.34h-1.76a2.22,2.22,0,0,0-2.22,2.22v18.48a2.21,2.21,0,0,1-2.21,2.22H703.66a2.22,2.22,0,0,1-2.22-2.22Zm17.62,7.86a2.2,2.2,0,0,0-2.82,2.13v12c.43,0,.79,0,1.09,0a3.41,3.41,0,0,0,2.83-1c.53-.67.79-2.06.79-4.17V496c0-2-.3-3.22-.91-3.8A2.59,2.59,0,0,0,719.06,491.64Z" transform="translate(-676.88 -473.52)"/><path class="b" d="M771.72,506.35H761.36a2.22,2.22,0,0,1-2.22-2.22v-7.68a18,18,0,0,0-.47-5.38,2.06,2.06,0,0,0-2.1-1.07,2.19,2.19,0,0,0-2.32,1.3,20.13,20.13,0,0,0-.49,5.62v26.44a18.84,18.84,0,0,0,.49,5.42,2.11,2.11,0,0,0,2.22,1.26,2.07,2.07,0,0,0,2.16-1.27c.34-.84.51-2.83.51-5.95v-4.94a2.22,2.22,0,0,1,2.22-2.22h10.36a2.22,2.22,0,0,1,2.22,2.22h0q0,8.83-1.25,12.54a12.77,12.77,0,0,1-5.52,6.47,18.82,18.82,0,0,1-10.53,2.78,21.82,21.82,0,0,1-10.72-2.35,11.47,11.47,0,0,1-5.59-6.52Q739,526.63,739,518.26V501.64a74.19,74.19,0,0,1,.42-9.23,12.89,12.89,0,0,1,2.52-5.93,13.92,13.92,0,0,1,5.8-4.48,23.81,23.81,0,0,1,19.32.89,12.17,12.17,0,0,1,5.59,6.31q1.33,3.76,1.33,11.74v3.19A2.22,2.22,0,0,1,771.72,506.35Z" transform="translate(-676.88 -473.52)"/><path class="b" d="M827.88,506.35H817.52a2.22,2.22,0,0,1-2.22-2.22v-7.68a18,18,0,0,0-.47-5.38,2.06,2.06,0,0,0-2.1-1.07,2.18,2.18,0,0,0-2.32,1.3,20.13,20.13,0,0,0-.49,5.62v26.44a18.84,18.84,0,0,0,.49,5.42,2.11,2.11,0,0,0,2.22,1.26,2.07,2.07,0,0,0,2.16-1.27c.34-.84.51-2.83.51-5.95v-4.94a2.22,2.22,0,0,1,2.22-2.22h10.36a2.22,2.22,0,0,1,2.22,2.22h0q0,8.83-1.25,12.54a12.77,12.77,0,0,1-5.52,6.47,18.82,18.82,0,0,1-10.53,2.78,21.82,21.82,0,0,1-10.72-2.35,11.47,11.47,0,0,1-5.59-6.52q-1.37-4.17-1.37-12.54V501.64a74.19,74.19,0,0,1,.42-9.23,12.89,12.89,0,0,1,2.52-5.93,13.92,13.92,0,0,1,5.8-4.48,23.81,23.81,0,0,1,19.32.89,12.14,12.14,0,0,1,5.58,6.31q1.35,3.76,1.34,11.74v3.19A2.22,2.22,0,0,1,827.88,506.35Z" transform="translate(-676.88 -473.52)"/><path class="b" d="M852,483.78v52.48a2.21,2.21,0,0,1-2.22,2.22H839.43a2.21,2.21,0,0,1-2.22-2.22V483.78a2.21,2.21,0,0,1,2.22-2.22h10.36A2.21,2.21,0,0,1,852,483.78Z" transform="translate(-676.88 -473.52)"/><path class="b" d="M889.56,483.78v7a2.21,2.21,0,0,1-2.21,2.22H883a2.23,2.23,0,0,0-2.22,2.22v41.09a2.21,2.21,0,0,1-2.21,2.22H868.19a2.22,2.22,0,0,1-2.22-2.22V495.17a2.22,2.22,0,0,0-2.21-2.22h-4.32a2.21,2.21,0,0,1-2.22-2.22v-7a2.21,2.21,0,0,1,2.22-2.22h27.91A2.21,2.21,0,0,1,889.56,483.78Z" transform="translate(-676.88 -473.52)"/><path class="b" d="M927.22,484.41l-9.85,33.16a1.93,1.93,0,0,0-.1.63v18.06a2.21,2.21,0,0,1-2.21,2.22h-9.28a2.22,2.22,0,0,1-2.22-2.22V518.19a2.49,2.49,0,0,0-.08-.61L894,484.39a2.22,2.22,0,0,1,2.13-2.83h8.82a2.23,2.23,0,0,1,2.18,1.81q.69,3.64,1.23,6.74a2.22,2.22,0,0,0,4.36,0c.43-2.17.89-4.45,1.4-6.83a2.23,2.23,0,0,1,2.17-1.76h8.83A2.22,2.22,0,0,1,927.22,484.41Z" transform="translate(-676.88 -473.52)"/><text class="c" transform="translate(0.46 86.98) scale(0.96 1)">ONLINE SHO<tspan class="d" x="177.15" y="0">P</tspan><tspan x="194.56" y="0" xml:space="preserve"> DEMO</tspan></text></svg>